<?xml version="1.0" encoding="UTF-8"?>
<svg id="Camada_1" xmlns="http://www.w3.org/2000/svg" version="1.1" viewBox="0 0 3008 1408">
  <!-- Generator: Adobe Illustrator 30.0.0, SVG Export Plug-In . SVG Version: 2.1.1 Build 123)  -->
  <defs>
    <style>
      .st0 {
        fill: #fff;
      }
    </style>
  </defs>
  <path class="st0" d="M2091.12,564.12c-.19-44.81-2.07-99.28,48.1-115.09,9.57-3.01,19.54-4.99,29.61-6l109.05-10.86c12.02-1.2,24.05-1.51,35.4.82,48.89,10.07,42.53,67,41.6,103.14l-5.55,215.63c-.49,19.03,2.89,36.83,9.36,53.74,3.87,10.11,12.91,15.07,22.34,15.41,26.15.94,30.22-44.02,29.82-63.18l-4.97-235.54c-.54-25.49-.9-49.87,9.27-73.11,9.63-22,31.94-36.5,55.62-39.97l61.44-9c26.77-3.92,52.76-8.61,79.67-10,50.67-2.62,54.08,58.71,54.1,94.08l.17,251.63c.07,98.26-11.3,226.52-98.62,288.04-32.48,22.89-69.84,35.93-110.14,39.17-65.29,5.26-130.25-2.61-192.03-23.99-39.73-13.75-74.64-34.76-103.44-64.95-60.04-62.96-69.7-154.53-70.06-238.17l-.74-171.83Z"/>
  <g>
    <path class="st0" d="M1936.82,1020.64l-130.83-6.48-146.86-5.26-189.09-2.84c-17.09-.26-33.57-2.37-48.28-9.71-22.62-11.3-34.15-33.19-33.3-58.35l4-117.8c1.37-40.39,27.96-70.44,64.95-83.11,31-10.62,61.92-16.39,95.1-20.75,56.71-7.46,112.01-15.19,167.74-27.35,10.24-2.23,18.74-4.19,25.81-13.29-8.82-3.42-15.57-4-24.26-3.82l-235.54,4.78c-17.7.36-33.72-2.32-50.17-6.62-22.05-5.76-40.79-23.29-43.04-46.79-2.67-27.91-3.62-55-3.19-83.27.72-46.52,36.01-65.77,78.44-65.52,159.9.97,317.88-3.58,477.29-15,25.33-1.81,58.97-2.77,75.63,17.33,9.31,11.24,14.47,26.23,14.6,41.24.42,47.92.41,94.14-1.99,141.75-1.83,36.26-22.09,65.35-54.75,79.95-27.61,12.34-56.12,18.71-86.28,23.23l-119.95,17.96c-12.35,1.85-66.15,8.74-67.14,20.27-.76,8.73,39.46,6.72,48.41,6.68l201.31-1.01c37.2-.19,75.96,14.34,79.05,56.99,2.19,30.14,2.86,59.41,2.63,89.7-.1,13.16-3.49,26.69-8.64,38.25-15.08,33.8-57.18,30.55-91.67,28.85Z"/>
    <g>
      <path class="st0" d="M972.62,456.3c23.21,6.25,36.12,26.37,33.1,50.03-3.07,24.08-10.41,46.88-16.78,70.61l-29.67,110.45-51.63,197.6c-8.03,30.75-13.77,59.5-26.71,88.59-15.37,34.53-45.82,63.73-84.82,68.36l-186,22.07c-42.12,5-84.36,7.16-112.17-29.83-10.6-14.11-20.49-29.61-24.77-47.64l-69.35-292.41-13.85-60.77-39.53-167.69c-3.59-15.23-4.95-30.37-4.34-45.68.91-22.74,19.66-36.66,42.31-33.77l116.3,14.84c43.39,5.53,88.24,15.64,108.48,59.74,10.6,23.09,16.23,47.39,19.42,72.73l14.27,113.35c6.57,52.15,12.48,102.76,24.03,153.95.86,3.83,5.22,8.01,7.98,7.97s7.85-4.19,8.58-7.49c5.89-26.88,9.23-51.84,12.95-79.33l23.79-175.78c4.95-36.6,5.11-92.78,53.47-104.15,13.14-3.09,27.57-4.29,41.11-3.05l108,9.85c15.37,1.4,30.18,3.26,45.81,7.47Z"/>
      <path class="st0" d="M1317.37,984.88c-11.29,14.83-30.28,24.54-49.05,25.53l-142.2,7.52c-21.8,1.15-44.41-5.04-57.95-21.8-12.16-15.05-15.91-34.85-15.28-54.17l5.91-182.01-5.95-231.66c-.49-18.98,5.64-38.16,19.4-49.94,14.51-12.42,34.51-17.42,53.88-16.26l139.57,8.37c20.42,1.22,40.07,12.05,51.45,27.87,12.41,17.25,12.71,37.6,11.9,58.23-2.89,73.67-7.98,145.43-4.77,219.37l6.77,156.03c.81,18.61-1.91,37.44-13.69,52.93Z"/>
    </g>
  </g>
</svg>